# xmcd CD database file
#
# Track frame offsets:
#	182
#	23082
#	38502
#	60510
#	73997
#	101825
#	120505
#	137957
#	162552
#	184932
#
# Disc length: 2784 seconds
#
# Revision: 2
# Processed by: cddbd v1.5.2PL0 Copyright (c) Steve Scherf et al.
# Submitted via: CDex 1.51
#
DISCID=8d0ade0a
DTITLE=Hot Tuna - Hot Tuna
DYEAR=1970
DGENRE=Blues
TTITLE0=Hesitation Blues
TTITLE1=How Long, How Long Blues
TTITLE2=Uncle Sam Blues
TTITLE3=Don't You Leave Me Here
TTITLE4=Death Don't Have No Mercy
TTITLE5=Know You Rider
TTITLE6=Search My Heart
TTITLE7=Winin' Boy Blues
TTITLE8=New Song (For The Morning)
TTITLE9=Mann's Fate
EXTD=YEAR: 1970
EXTT0=
EXTT1=
EXTT2=
EXTT3=
EXTT4=
EXTT5=
EXTT6=
EXTT7=
EXTT8=
EXTT9=
PLAYORDER=
